<svg xmlns="http://www.w3.org/2000/svg" xmlns:xlink="http://www.w3.org/1999/xlink" width="500" zoomAndPan="magnify" viewBox="0 0 375 374.999991" height="500" preserveAspectRatio="xMidYMid meet" version="1.0"><defs><g/></defs><g fill="#ffffff" fill-opacity="1"><g transform="translate(42.190991, 234.228661)"><g><path d="M 24.203125 0 L 3.046875 0 L 35.265625 -93.3125 L 60.6875 -93.3125 L 92.859375 0 L 71.71875 0 L 64.796875 -21.28125 L 31.125 -21.28125 Z M 36.140625 -36.6875 L 59.828125 -36.6875 L 48.34375 -72 L 47.609375 -72 Z M 36.140625 -36.6875 "/></g></g></g><g fill="#ffffff" fill-opacity="1"><g transform="translate(138.149008, 234.228661)"><g><path d="M 90.453125 -60.640625 L 70.484375 -60.640625 C 69.722656 -65.773438 67.535156 -69.804688 63.921875 -72.734375 C 60.304688 -75.671875 55.796875 -77.140625 50.390625 -77.140625 C 43.160156 -77.140625 37.363281 -74.488281 33 -69.1875 C 28.644531 -63.882812 26.46875 -56.375 26.46875 -46.65625 C 26.46875 -36.695312 28.660156 -29.125 33.046875 -23.9375 C 37.441406 -18.757812 43.179688 -16.171875 50.265625 -16.171875 C 55.515625 -16.171875 59.960938 -17.546875 63.609375 -20.296875 C 67.253906 -23.046875 69.546875 -26.910156 70.484375 -31.890625 L 90.453125 -31.8125 C 89.753906 -26.09375 87.71875 -20.710938 84.34375 -15.671875 C 80.96875 -10.628906 76.382812 -6.539062 70.59375 -3.40625 C 64.8125 -0.28125 57.925781 1.28125 49.9375 1.28125 C 41.613281 1.28125 34.175781 -0.601562 27.625 -4.375 C 21.082031 -8.144531 15.921875 -13.597656 12.140625 -20.734375 C 8.359375 -27.867188 6.46875 -36.507812 6.46875 -46.65625 C 6.46875 -56.832031 8.378906 -65.488281 12.203125 -72.625 C 16.035156 -79.769531 21.234375 -85.21875 27.796875 -88.96875 C 34.359375 -92.71875 41.738281 -94.59375 49.9375 -94.59375 C 57.132812 -94.59375 63.625 -93.265625 69.40625 -90.609375 C 75.195312 -87.953125 79.9375 -84.09375 83.625 -79.03125 C 87.320312 -73.976562 89.597656 -67.847656 90.453125 -60.640625 Z M 90.453125 -60.640625 "/></g></g></g><g fill="#ffffff" fill-opacity="1"><g transform="translate(234.653801, 234.228661)"><g><path d="M 8.109375 -93.3125 L 32.4375 -93.3125 L 58.140625 -30.625 L 59.234375 -30.625 L 84.9375 -93.3125 L 109.265625 -93.3125 L 109.265625 0 L 90.125 0 L 90.125 -60.734375 L 89.359375 -60.734375 L 65.203125 -0.453125 L 52.171875 -0.453125 L 28.015625 -60.96875 L 27.25 -60.96875 L 27.25 0 L 8.109375 0 Z M 8.109375 -93.3125 "/></g></g></g></svg>